<svg xmlns="http://www.w3.org/2000/svg" viewBox="0 0 214.92 35.2"><defs><style>.cls-1{fill:#f6e8d0;fill-rule:evenodd;}</style></defs><g id="Layer_2" data-name="Layer 2"><g id="Layer_1-2" data-name="Layer 1"><path class="cls-1" d="M2.67,13.39C2.66,6.56,7.1.69,14.32.68c7.76,0,14.05,6.68,14.07,17,0,6.83-4.35,12.69-11.56,12.71-7.89,0-14.14-6.68-14.16-17m53.73,6c0-5.09,2.31-8.15,6.94-8.16,3.1,0,6.07,2.37,7.52,5.8-4.75,1.24-9.75,4.64-13.44,7.79a14.32,14.32,0,0,1-1-5.43m19,0c0-5.1,2.32-8.15,6.95-8.16,3.09,0,6.07,2.36,7.52,5.8-4.75,1.24-9.75,4.64-13.44,7.79a14.55,14.55,0,0,1-1-5.43m16.86,5.78h-.51a8.15,8.15,0,0,1-15.11.11c4.11-3.48,10.13-7.74,16-8.17A10.23,10.23,0,0,0,73.57,17a10.23,10.23,0,1,0-9.48,14c4.55,0,10-2.49,12.55-5.75l-.21-.46c-.84,1.82-6.78,5-11.36,5a7.9,7.9,0,0,1-7.43-4.55c4.08-3.47,10-7.7,15.88-8.17A10.23,10.23,0,0,0,83.1,30.94a9.66,9.66,0,0,0,9.16-5.83M110.45,18v9.46c0,1.74-.71,2.25-2.45,2.26v.51l7.34,0v-.51c-1.74,0-2.46-.5-2.47-2.24V18c0-4.84-2.18-7.55-7.7-7.54-2.93,0-6.36,1.58-8,2.56V10.46L92.28,12v.51c1.74,0,2.46.5,2.46,2.24l0,12.73c0,1.74-.72,2.25-2.46,2.25v.51h7.34v-.51c-1.74,0-2.46-.5-2.47-2.24l0-14a12.88,12.88,0,0,1,6.66-1.92c4.49,0,6.62,2.54,6.63,6.48M15.6,31.06a10.79,10.79,0,0,0,1.27,0c2.94,3.22,6.83.5,9.68,4.19l2.29-2c-2.89-3.73-8.23.69-11.29-2.23A15.18,15.18,0,0,0,31.06,15.5a17.55,17.55,0,0,0-.14-2.2c1.59,0,2.26.57,2.26,2.24v7.93c0,4.84,2.18,7.55,7.7,7.54,2.92,0,6.36-1.58,8-2.56v1.87l4.88-1.54v-.51c-1.74,0-2.46-.5-2.46-2.24l0-14.81-4.88,1.54v.51c1.74,0,2.47.5,2.47,2.24L48.9,28A12.82,12.82,0,0,1,42.24,30c-4.5,0-6.62-2.53-6.63-6.48l0-12.22-4.75,1.5C29.61,4.94,23.21,0,15.54,0A15.2,15.2,0,0,0,0,15.56c0,9.37,6.94,15.51,15.6,15.5"/><path class="cls-1" d="M167.06,17.88l0,9.46c0,1.74-.72,2.25-2.46,2.26v.51l7.58,0v-.51c-1.74,0-2.7-.5-2.7-2.24l0-9.46c0-4.84-2.18-7.55-7.69-7.54-2.93,0-6.37,1.58-8,2.56V10.35l-4.88,1.54v.51c1.74,0,2.46.5,2.47,2.24l0,12.73c0,1.74-.72,2.25-2.46,2.25v.51h7.34v-.51c-1.74,0-2.46-.5-2.46-2.24l0-14a12.91,12.91,0,0,1,6.66-1.92c4.5,0,6.62,2.54,6.63,6.48m23.55,0V27.3c0,1.74-.71,2.25-2.45,2.25v.51h7.34v-.51c-1.74,0-2.46-.5-2.47-2.24V17.84c0-4.84-2.18-7.55-7.7-7.54-2.92,0-6.36,1.58-8,2.56V10.31l-4.87,1.54v.51c1.74,0,2.46.5,2.46,2.24l0,12.73c0,1.74-1.08,2.25-2.82,2.25v.51h7.7v-.51c-1.74,0-2.46-.5-2.47-2.25l0-14A12.82,12.82,0,0,1,184,11.36c4.5,0,6.62,2.53,6.63,6.48m7.09,1.26c0-5.09,2.32-8.15,6.94-8.16,3.1,0,6.07,2.37,7.52,5.8-4.75,1.24-9.75,4.64-13.44,7.79a14.51,14.51,0,0,1-1-5.43m-74,2.68,7.7-18.25,7.77,18.23Zm-.5,0,0,0-2.43,5.76a3.32,3.32,0,0,1-3.48,2.23v.51l6,0v-.5c-1.6,0-2.73-.5-2-2.22l2.21-5.3,15.89,0,2.27,5.29c.68,1.55,0,2.23-1.55,2.23v.5h7.73v-.5a3.56,3.56,0,0,1-3.5-2.22L132.59.13l-1,1.6-.68.54.3.68Zm91.33,3.1H214a8.14,8.14,0,0,1-15.1.12c4.11-3.49,10.12-7.74,16-8.18a10.22,10.22,0,0,0-19.77,3.64A10.08,10.08,0,0,0,205.4,30.71a9.65,9.65,0,0,0,9.15-5.83"/></g></g></svg>